<svg width="162" height="46" viewBox="0 0 162 46" fill="none" xmlns="http://www.w3.org/2000/svg">
	<path d="M8.13206 26.1807V5.32361C8.13206 5.08891 8.00383 4.95021 7.75805 4.95021H0.374011C0.138918 4.95021 0 4.82219 0 4.57681V1.1202C0 0.874822 0.128232 0.746799 0.374011 0.746799H20.3889C20.624 0.746799 20.7629 0.874822 20.7629 1.1202V4.57681C20.7629 4.81152 20.6347 4.95021 20.3889 4.95021H12.9835C12.7484 4.95021 12.6095 5.07824 12.6095 5.32361V26.1913C12.6095 26.426 12.4813 26.5647 12.2355 26.5647H8.50607C8.26029 26.5541 8.13206 26.426 8.13206 26.1807ZM20.9018 26.1807V8.11878C20.9018 7.88407 21.0301 7.74538 21.2759 7.74538H23.8619C24.0756 7.74538 24.2038 7.82006 24.2573 8.06543L24.7595 10.0391C24.8343 10.3272 25.048 10.3805 25.2404 10.1138C26.4693 8.56686 27.9546 7.74538 30.5941 7.74538H32.4855C32.7206 7.74538 32.8595 7.8734 32.8595 8.11878V11.7674C32.8595 12.0021 32.7313 12.1408 32.4855 12.1408H30.0384C27.057 12.1408 25.1121 13.261 25.1121 17.4324V26.1913C25.1121 26.426 24.9839 26.5647 24.7381 26.5647H21.2652C21.0301 26.5541 20.9018 26.426 20.9018 26.1807ZM34.4945 17.1337C34.4945 11.202 38.491 7.37198 44.1653 7.31863C46.8047 7.2973 48.6962 8.01209 50.0319 9.20697C50.267 9.42034 50.4807 9.31366 50.4807 8.9936V8.11878C50.4807 7.88407 50.609 7.74538 50.8548 7.74538H54.317C54.5521 7.74538 54.691 7.8734 54.691 8.11878V26.1913C54.691 26.426 54.5628 26.5647 54.317 26.5647H51.731C51.5173 26.5647 51.389 26.49 51.3356 26.2447L50.9616 24.7297C50.8868 24.4097 50.7265 24.335 50.5876 24.495C49.1984 26.0953 47.0933 27.0235 44.005 26.9915C38.4376 26.9275 34.4945 23.0761 34.4945 17.1337ZM50.4807 17.1337C50.4807 13.2504 47.8413 11.2767 44.6141 11.2767C41.3335 11.2767 38.6941 13.3784 38.6941 17.1337C38.6941 20.889 41.3335 23.0121 44.6141 23.0121C47.8413 23.0228 50.4807 21.0277 50.4807 17.1337ZM62.5346 26.1807V11.8634C62.5346 11.6287 62.4063 11.49 62.1606 11.49H57.9716C57.7365 11.49 57.5976 11.362 57.5976 11.1166V8.11878C57.5976 7.88407 57.7259 7.74538 57.9716 7.74538H62.1606C62.3956 7.74538 62.5346 7.61735 62.5346 7.37198C62.7483 1.33357 65.922 0 70.7201 0H71.9703C72.2054 0 72.3443 0.128023 72.3443 0.3734V3.45661C72.3443 3.69132 72.2161 3.83001 71.9703 3.83001H70.7735C68.3264 3.83001 66.7449 4.43812 66.7449 7.26529V7.37198C66.7449 7.60669 66.8731 7.74538 67.1189 7.74538H71.9703C72.2054 7.74538 72.3443 7.8734 72.3443 8.11878V11.1273C72.3443 11.362 72.2161 11.5007 71.9703 11.5007H67.1189C66.8838 11.5007 66.7449 11.6287 66.7449 11.8741V26.1913C66.7449 26.426 66.6166 26.5647 66.3708 26.5647H62.9086C62.6628 26.5541 62.5346 26.426 62.5346 26.1807ZM75.2509 0H79.0338C79.2689 0 79.4078 0.128023 79.4078 0.3734V4.15007C79.4078 4.38478 79.2795 4.52347 79.0338 4.52347H75.2509C75.0158 4.52347 74.8769 4.39545 74.8769 4.15007V0.3734C74.8769 0.128023 75.0051 0 75.2509 0ZM75.0372 26.1807V8.11878C75.0372 7.88407 75.1654 7.74538 75.4112 7.74538H78.8735C79.1086 7.74538 79.2475 7.8734 79.2475 8.11878V26.1913C79.2475 26.426 79.1193 26.5647 78.8735 26.5647H75.4112C75.1654 26.5541 75.0372 26.426 75.0372 26.1807ZM82.6563 35.5477C82.6563 31.899 84.4195 29.4559 87.1872 27.3542L89.9335 25.2525C90.1686 25.0711 90.1472 24.8578 89.8266 24.7724C86.0438 23.7589 83.2975 20.6223 83.2975 16.2589C83.2975 10.9673 87.3796 7.39331 92.4661 7.39331C94.4644 7.39331 96.1955 7.89474 97.6381 8.90825C97.8519 9.08962 98.0656 9.01494 98.119 8.74822L98.2793 8.05477C98.3327 7.82006 98.493 7.73471 98.7067 7.73471H101.261C101.496 7.73471 101.635 7.86273 101.635 8.10811V15.7148C101.635 20.0036 99.9036 21.9452 97.5847 23.7269L94.785 25.8606C94.5178 26.074 94.5712 26.2873 94.8918 26.3407C99.1342 27.3222 102.244 30.7895 102.244 35.5477C102.244 41.1913 97.8412 45 92.4661 45C87.0269 45 82.6563 41.1913 82.6563 35.5477ZM98.0335 35.5263C98.0335 32.2297 95.533 30.0427 92.4661 30.0427C89.3458 30.0427 86.8666 32.2297 86.8666 35.5263C86.8666 38.8229 89.3458 41.0313 92.4661 41.0313C95.533 41.0313 98.0335 38.8229 98.0335 35.5263ZM97.4992 16.2376C97.4992 13.1543 95.2338 11.106 92.4661 11.106C89.645 11.106 87.4009 13.1543 87.4009 16.2376C87.4009 19.3208 89.645 21.4011 92.4661 21.4011C95.2338 21.3905 97.4992 19.3208 97.4992 16.2376ZM105.984 18.2326V8.11878C105.984 7.88407 106.112 7.74538 106.358 7.74538H109.82C110.055 7.74538 110.194 7.8734 110.194 8.11878V18.0192C110.194 21.8279 111.712 23.0441 114.244 23.0441C117.6 23.0441 119.331 20.409 119.331 17.1337V8.11878C119.331 7.88407 119.459 7.74538 119.705 7.74538H123.167C123.402 7.74538 123.541 7.8734 123.541 8.11878V26.1913C123.541 26.426 123.413 26.5647 123.167 26.5647H120.581C120.367 26.5647 120.239 26.49 120.186 26.2447L119.705 24.3243C119.63 24.0043 119.438 23.8976 119.331 24.0896C118.294 25.7112 116.082 26.9915 113.25 26.9915C108.431 26.9808 105.984 23.7589 105.984 18.2326ZM128.211 26.1807V8.11878C128.211 7.88407 128.339 7.74538 128.585 7.74538H131.171C131.385 7.74538 131.513 7.82006 131.566 8.06543L132.079 10.0285C132.154 10.3165 132.368 10.3698 132.56 10.1031C133.789 8.55619 135.274 7.73471 137.914 7.73471H139.805C140.04 7.73471 140.179 7.86273 140.179 8.10811V11.7568C140.179 11.9915 140.051 12.1302 139.805 12.1302H137.358C134.377 12.1302 132.432 13.2504 132.432 17.4218V26.1807C132.432 26.4154 132.304 26.5541 132.058 26.5541H128.596C128.339 26.5541 128.211 26.426 128.211 26.1807ZM141.803 17.1337C141.803 11.202 145.8 7.37198 151.474 7.31863C154.114 7.2973 156.005 8.01209 157.341 9.20697C157.576 9.42034 157.79 9.31366 157.79 8.9936V8.11878C157.79 7.88407 157.918 7.74538 158.164 7.74538H161.626C161.861 7.74538 162 7.8734 162 8.11878V26.1913C162 26.426 161.872 26.5647 161.626 26.5647H159.04C158.826 26.5647 158.698 26.49 158.645 26.2447L158.271 24.7297C158.196 24.4097 158.035 24.335 157.897 24.495C156.507 26.0953 154.402 27.0235 151.314 26.9915C145.747 26.9275 141.803 23.0761 141.803 17.1337ZM157.8 17.1337C157.8 13.2504 155.161 11.2767 151.934 11.2767C148.653 11.2767 146.014 13.3784 146.014 17.1337C146.014 20.889 148.653 23.0121 151.934 23.0121C155.161 23.0228 157.8 21.0277 157.8 17.1337Z" fill="#0000FF"></path>
</svg>